<mxfile host="app.diagrams.net" modified="2022-08-12T22:26:20.962Z" agent="5.0 (Windows NT 10.0; Win64; x64) AppleWebKit/537.36 (KHTML, like Gecko) Chrome/104.0.0.0 Safari/537.36" etag="DiJaviX5aZsUxfAhPlZ8" version="20.2.3" type="github">
  <diagram id="KhcxHXRTvUJOaFPV1zeg" name="Anemico">
    <mxGraphModel dx="2249" dy="786" grid="1" gridSize="10" guides="1" tooltips="1" connect="1" arrows="1" fold="1" page="1" pageScale="1" pageWidth="827" pageHeight="1169" math="0" shadow="0">
      <root>
        <mxCell id="0" />
        <mxCell id="1" parent="0" />
        <mxCell id="D1vBDJk1YtNsOjC5OgPf-1" value="Tipo Rubro" style="rounded=0;whiteSpace=wrap;html=1;" parent="1" vertex="1">
          <mxGeometry x="80" y="40" width="160" height="40" as="geometry" />
        </mxCell>
        <mxCell id="D1vBDJk1YtNsOjC5OgPf-2" style="edgeStyle=orthogonalEdgeStyle;rounded=0;orthogonalLoop=1;jettySize=auto;html=1;entryX=0.5;entryY=1;entryDx=0;entryDy=0;endArrow=none;endFill=0;" parent="1" source="D1vBDJk1YtNsOjC5OgPf-4" target="D1vBDJk1YtNsOjC5OgPf-1" edge="1">
          <mxGeometry relative="1" as="geometry" />
        </mxCell>
        <mxCell id="D1vBDJk1YtNsOjC5OgPf-3" style="edgeStyle=orthogonalEdgeStyle;rounded=0;orthogonalLoop=1;jettySize=auto;html=1;endArrow=none;endFill=0;" parent="1" source="D1vBDJk1YtNsOjC5OgPf-4" target="D1vBDJk1YtNsOjC5OgPf-8" edge="1">
          <mxGeometry relative="1" as="geometry" />
        </mxCell>
        <mxCell id="D1vBDJk1YtNsOjC5OgPf-4" value="Rubro" style="rounded=0;whiteSpace=wrap;html=1;" parent="1" vertex="1">
          <mxGeometry x="80" y="200" width="160" height="40" as="geometry" />
        </mxCell>
        <mxCell id="D1vBDJk1YtNsOjC5OgPf-5" style="edgeStyle=orthogonalEdgeStyle;rounded=0;orthogonalLoop=1;jettySize=auto;html=1;endArrow=none;endFill=0;" parent="1" source="D1vBDJk1YtNsOjC5OgPf-8" target="D1vBDJk1YtNsOjC5OgPf-13" edge="1">
          <mxGeometry relative="1" as="geometry">
            <Array as="points">
              <mxPoint x="360" y="310" />
              <mxPoint x="160" y="310" />
            </Array>
          </mxGeometry>
        </mxCell>
        <mxCell id="D1vBDJk1YtNsOjC5OgPf-6" style="edgeStyle=orthogonalEdgeStyle;rounded=0;orthogonalLoop=1;jettySize=auto;html=1;endArrow=none;endFill=0;" parent="1" source="D1vBDJk1YtNsOjC5OgPf-8" target="D1vBDJk1YtNsOjC5OgPf-21" edge="1">
          <mxGeometry relative="1" as="geometry">
            <Array as="points">
              <mxPoint x="610" y="240" />
              <mxPoint x="610" y="240" />
            </Array>
          </mxGeometry>
        </mxCell>
        <mxCell id="D1vBDJk1YtNsOjC5OgPf-7" style="edgeStyle=orthogonalEdgeStyle;rounded=0;orthogonalLoop=1;jettySize=auto;html=1;endArrow=none;endFill=0;" parent="1" source="D1vBDJk1YtNsOjC5OgPf-8" target="D1vBDJk1YtNsOjC5OgPf-20" edge="1">
          <mxGeometry relative="1" as="geometry">
            <Array as="points">
              <mxPoint x="480" y="330" />
            </Array>
          </mxGeometry>
        </mxCell>
        <mxCell id="D1vBDJk1YtNsOjC5OgPf-8" value="Detalle Presupuesto" style="rounded=0;whiteSpace=wrap;html=1;" parent="1" vertex="1">
          <mxGeometry x="360" y="200" width="160" height="40" as="geometry" />
        </mxCell>
        <mxCell id="D1vBDJk1YtNsOjC5OgPf-9" style="edgeStyle=orthogonalEdgeStyle;rounded=0;orthogonalLoop=1;jettySize=auto;html=1;entryX=0.5;entryY=0;entryDx=0;entryDy=0;endArrow=none;endFill=0;" parent="1" source="D1vBDJk1YtNsOjC5OgPf-12" target="D1vBDJk1YtNsOjC5OgPf-8" edge="1">
          <mxGeometry relative="1" as="geometry" />
        </mxCell>
        <mxCell id="D1vBDJk1YtNsOjC5OgPf-10" style="edgeStyle=orthogonalEdgeStyle;rounded=0;orthogonalLoop=1;jettySize=auto;html=1;endArrow=none;endFill=0;curved=1;" parent="1" source="D1vBDJk1YtNsOjC5OgPf-12" target="D1vBDJk1YtNsOjC5OgPf-23" edge="1">
          <mxGeometry relative="1" as="geometry">
            <Array as="points">
              <mxPoint x="590" y="40" />
              <mxPoint x="590" y="40" />
            </Array>
          </mxGeometry>
        </mxCell>
        <mxCell id="D1vBDJk1YtNsOjC5OgPf-11" style="edgeStyle=entityRelationEdgeStyle;rounded=0;orthogonalLoop=1;jettySize=auto;html=1;endArrow=none;endFill=0;" parent="1" source="D1vBDJk1YtNsOjC5OgPf-12" target="D1vBDJk1YtNsOjC5OgPf-22" edge="1">
          <mxGeometry relative="1" as="geometry" />
        </mxCell>
        <mxCell id="D1vBDJk1YtNsOjC5OgPf-12" value="Presupuesto" style="rounded=0;whiteSpace=wrap;html=1;" parent="1" vertex="1">
          <mxGeometry x="360" y="40" width="160" height="40" as="geometry" />
        </mxCell>
        <mxCell id="D1vBDJk1YtNsOjC5OgPf-13" value="Ejecución Detalle Real Presupuesto" style="rounded=0;whiteSpace=wrap;html=1;" parent="1" vertex="1">
          <mxGeometry x="80" y="360" width="160" height="40" as="geometry" />
        </mxCell>
        <mxCell id="D1vBDJk1YtNsOjC5OgPf-14" value="es" style="text;html=1;align=center;verticalAlign=middle;resizable=0;points=[];autosize=1;strokeColor=none;fillColor=none;" parent="1" vertex="1">
          <mxGeometry x="120" y="124" width="40" height="30" as="geometry" />
        </mxCell>
        <mxCell id="D1vBDJk1YtNsOjC5OgPf-15" value="" style="endArrow=classic;html=1;rounded=0;" parent="1" edge="1">
          <mxGeometry width="50" height="50" relative="1" as="geometry">
            <mxPoint x="140" y="120" as="sourcePoint" />
            <mxPoint x="139.5" y="100" as="targetPoint" />
          </mxGeometry>
        </mxCell>
        <mxCell id="D1vBDJk1YtNsOjC5OgPf-16" value="existen&lt;br&gt;" style="text;html=1;align=center;verticalAlign=middle;resizable=0;points=[];autosize=1;strokeColor=none;fillColor=none;" parent="1" vertex="1">
          <mxGeometry x="157" y="125" width="60" height="30" as="geometry" />
        </mxCell>
        <mxCell id="D1vBDJk1YtNsOjC5OgPf-17" value="" style="endArrow=classic;html=1;rounded=0;" parent="1" edge="1">
          <mxGeometry width="50" height="50" relative="1" as="geometry">
            <mxPoint x="187" y="160" as="sourcePoint" />
            <mxPoint x="187" y="180" as="targetPoint" />
          </mxGeometry>
        </mxCell>
        <mxCell id="D1vBDJk1YtNsOjC5OgPf-18" value="0...*" style="text;html=1;align=center;verticalAlign=middle;resizable=0;points=[];autosize=1;strokeColor=none;fillColor=none;" parent="1" vertex="1">
          <mxGeometry x="154" y="178" width="40" height="30" as="geometry" />
        </mxCell>
        <mxCell id="D1vBDJk1YtNsOjC5OgPf-19" value="1" style="text;html=1;align=center;verticalAlign=middle;resizable=0;points=[];autosize=1;strokeColor=none;fillColor=none;" parent="1" vertex="1">
          <mxGeometry x="136" y="75" width="30" height="30" as="geometry" />
        </mxCell>
        <mxCell id="D1vBDJk1YtNsOjC5OgPf-20" value="Tipo Detalle Presupuesto" style="rounded=0;whiteSpace=wrap;html=1;" parent="1" vertex="1">
          <mxGeometry x="680" y="320" width="160" height="40" as="geometry" />
        </mxCell>
        <mxCell id="D1vBDJk1YtNsOjC5OgPf-21" value="Mes" style="rounded=0;whiteSpace=wrap;html=1;" parent="1" vertex="1">
          <mxGeometry x="680" y="240" width="160" height="40" as="geometry" />
        </mxCell>
        <mxCell id="D1vBDJk1YtNsOjC5OgPf-22" value="Persona" style="rounded=0;whiteSpace=wrap;html=1;" parent="1" vertex="1">
          <mxGeometry x="680" y="160" width="160" height="40" as="geometry" />
        </mxCell>
        <mxCell id="D1vBDJk1YtNsOjC5OgPf-23" value="Año" style="rounded=0;whiteSpace=wrap;html=1;" parent="1" vertex="1">
          <mxGeometry x="680" y="40" width="160" height="40" as="geometry" />
        </mxCell>
        <mxCell id="D1vBDJk1YtNsOjC5OgPf-24" value="1" style="text;html=1;align=center;verticalAlign=middle;resizable=0;points=[];autosize=1;strokeColor=none;fillColor=none;" parent="1" vertex="1">
          <mxGeometry x="231" y="218" width="30" height="30" as="geometry" />
        </mxCell>
        <mxCell id="D1vBDJk1YtNsOjC5OgPf-25" style="edgeStyle=orthogonalEdgeStyle;curved=1;rounded=0;orthogonalLoop=1;jettySize=auto;html=1;entryX=1.1;entryY=0.467;entryDx=0;entryDy=0;entryPerimeter=0;endArrow=classic;endFill=1;elbow=vertical;" parent="1" source="D1vBDJk1YtNsOjC5OgPf-26" target="D1vBDJk1YtNsOjC5OgPf-24" edge="1">
          <mxGeometry relative="1" as="geometry" />
        </mxCell>
        <mxCell id="D1vBDJk1YtNsOjC5OgPf-26" value="es" style="text;html=1;align=center;verticalAlign=middle;resizable=0;points=[];autosize=1;strokeColor=none;fillColor=none;" parent="1" vertex="1">
          <mxGeometry x="282" y="217" width="40" height="30" as="geometry" />
        </mxCell>
        <mxCell id="D1vBDJk1YtNsOjC5OgPf-27" style="edgeStyle=orthogonalEdgeStyle;curved=1;rounded=0;orthogonalLoop=1;jettySize=auto;html=1;endArrow=classic;endFill=1;elbow=vertical;" parent="1" source="D1vBDJk1YtNsOjC5OgPf-28" target="D1vBDJk1YtNsOjC5OgPf-29" edge="1">
          <mxGeometry relative="1" as="geometry">
            <Array as="points">
              <mxPoint x="350" y="210" />
              <mxPoint x="350" y="210" />
            </Array>
          </mxGeometry>
        </mxCell>
        <mxCell id="D1vBDJk1YtNsOjC5OgPf-28" value="esta" style="text;html=1;align=center;verticalAlign=middle;resizable=0;points=[];autosize=1;strokeColor=none;fillColor=none;" parent="1" vertex="1">
          <mxGeometry x="261" y="188" width="50" height="30" as="geometry" />
        </mxCell>
        <mxCell id="D1vBDJk1YtNsOjC5OgPf-29" value="0...*" style="text;html=1;align=center;verticalAlign=middle;resizable=0;points=[];autosize=1;strokeColor=none;fillColor=none;" parent="1" vertex="1">
          <mxGeometry x="328" y="195" width="40" height="30" as="geometry" />
        </mxCell>
        <mxCell id="D1vBDJk1YtNsOjC5OgPf-30" value="1" style="text;html=1;align=center;verticalAlign=middle;resizable=0;points=[];autosize=1;strokeColor=none;fillColor=none;" parent="1" vertex="1">
          <mxGeometry x="415" y="75" width="30" height="30" as="geometry" />
        </mxCell>
        <mxCell id="D1vBDJk1YtNsOjC5OgPf-31" style="edgeStyle=orthogonalEdgeStyle;curved=1;rounded=0;orthogonalLoop=1;jettySize=auto;html=1;endArrow=none;endFill=0;elbow=vertical;" parent="1" source="D1vBDJk1YtNsOjC5OgPf-32" edge="1">
          <mxGeometry relative="1" as="geometry">
            <mxPoint x="399.9999999999998" y="100" as="targetPoint" />
          </mxGeometry>
        </mxCell>
        <mxCell id="D1vBDJk1YtNsOjC5OgPf-32" value="pertenece" style="text;html=1;align=center;verticalAlign=middle;resizable=0;points=[];autosize=1;strokeColor=none;fillColor=none;" parent="1" vertex="1">
          <mxGeometry x="360" y="125" width="80" height="30" as="geometry" />
        </mxCell>
        <mxCell id="D1vBDJk1YtNsOjC5OgPf-33" style="edgeStyle=orthogonalEdgeStyle;curved=1;rounded=0;orthogonalLoop=1;jettySize=auto;html=1;endArrow=none;endFill=0;elbow=vertical;" parent="1" source="D1vBDJk1YtNsOjC5OgPf-34" edge="1">
          <mxGeometry relative="1" as="geometry">
            <mxPoint x="457" y="180" as="targetPoint" />
          </mxGeometry>
        </mxCell>
        <mxCell id="D1vBDJk1YtNsOjC5OgPf-34" value="tiene" style="text;html=1;align=center;verticalAlign=middle;resizable=0;points=[];autosize=1;strokeColor=none;fillColor=none;" parent="1" vertex="1">
          <mxGeometry x="432" y="124" width="50" height="30" as="geometry" />
        </mxCell>
        <mxCell id="D1vBDJk1YtNsOjC5OgPf-35" value="0...*" style="text;html=1;align=center;verticalAlign=middle;resizable=0;points=[];autosize=1;strokeColor=none;fillColor=none;" parent="1" vertex="1">
          <mxGeometry x="440" y="175" width="40" height="30" as="geometry" />
        </mxCell>
        <mxCell id="D1vBDJk1YtNsOjC5OgPf-36" style="edgeStyle=none;rounded=0;orthogonalLoop=1;jettySize=auto;html=1;endArrow=classic;endFill=1;elbow=vertical;" parent="1" source="D1vBDJk1YtNsOjC5OgPf-37" edge="1">
          <mxGeometry relative="1" as="geometry">
            <mxPoint x="590" y="80" as="targetPoint" />
          </mxGeometry>
        </mxCell>
        <mxCell id="D1vBDJk1YtNsOjC5OgPf-37" value="pertenece" style="text;html=1;align=center;verticalAlign=middle;resizable=0;points=[];autosize=1;strokeColor=none;fillColor=none;" parent="1" vertex="1">
          <mxGeometry x="600" y="120" width="80" height="30" as="geometry" />
        </mxCell>
        <mxCell id="D1vBDJk1YtNsOjC5OgPf-38" style="rounded=0;orthogonalLoop=1;jettySize=auto;html=1;endArrow=classic;endFill=1;elbow=vertical;" parent="1" source="D1vBDJk1YtNsOjC5OgPf-39" edge="1">
          <mxGeometry relative="1" as="geometry">
            <mxPoint x="599.9999999999998" y="170" as="targetPoint" />
          </mxGeometry>
        </mxCell>
        <mxCell id="D1vBDJk1YtNsOjC5OgPf-39" value="tiene" style="text;html=1;align=center;verticalAlign=middle;resizable=0;points=[];autosize=1;strokeColor=none;fillColor=none;" parent="1" vertex="1">
          <mxGeometry x="534" y="95" width="50" height="30" as="geometry" />
        </mxCell>
        <mxCell id="D1vBDJk1YtNsOjC5OgPf-40" value="0...*" style="text;html=1;align=center;verticalAlign=middle;resizable=0;points=[];autosize=1;strokeColor=none;fillColor=none;" parent="1" vertex="1">
          <mxGeometry x="510" y="65" width="40" height="30" as="geometry" />
        </mxCell>
        <mxCell id="D1vBDJk1YtNsOjC5OgPf-41" value="1" style="text;html=1;align=center;verticalAlign=middle;resizable=0;points=[];autosize=1;strokeColor=none;fillColor=none;" parent="1" vertex="1">
          <mxGeometry x="615" y="155" width="30" height="30" as="geometry" />
        </mxCell>
        <mxCell id="D1vBDJk1YtNsOjC5OgPf-42" value="0...*" style="text;html=1;align=center;verticalAlign=middle;resizable=0;points=[];autosize=1;strokeColor=none;fillColor=none;" parent="1" vertex="1">
          <mxGeometry x="510" y="15" width="40" height="30" as="geometry" />
        </mxCell>
        <mxCell id="D1vBDJk1YtNsOjC5OgPf-43" value="1" style="text;html=1;align=center;verticalAlign=middle;resizable=0;points=[];autosize=1;strokeColor=none;fillColor=none;" parent="1" vertex="1">
          <mxGeometry x="660" y="35" width="30" height="30" as="geometry" />
        </mxCell>
        <mxCell id="D1vBDJk1YtNsOjC5OgPf-44" style="edgeStyle=none;rounded=0;orthogonalLoop=1;jettySize=auto;html=1;entryX=0.45;entryY=1.133;entryDx=0;entryDy=0;entryPerimeter=0;endArrow=classic;endFill=1;elbow=vertical;" parent="1" source="D1vBDJk1YtNsOjC5OgPf-45" target="D1vBDJk1YtNsOjC5OgPf-42" edge="1">
          <mxGeometry relative="1" as="geometry" />
        </mxCell>
        <mxCell id="D1vBDJk1YtNsOjC5OgPf-45" value="puede estar" style="text;html=1;align=center;verticalAlign=middle;resizable=0;points=[];autosize=1;strokeColor=none;fillColor=none;" parent="1" vertex="1">
          <mxGeometry x="559" y="35" width="90" height="30" as="geometry" />
        </mxCell>
        <mxCell id="D1vBDJk1YtNsOjC5OgPf-46" style="edgeStyle=none;rounded=0;orthogonalLoop=1;jettySize=auto;html=1;endArrow=classic;endFill=1;elbow=vertical;" parent="1" source="D1vBDJk1YtNsOjC5OgPf-47" edge="1">
          <mxGeometry relative="1" as="geometry">
            <mxPoint x="679.9999999999998" y="25" as="targetPoint" />
          </mxGeometry>
        </mxCell>
        <mxCell id="D1vBDJk1YtNsOjC5OgPf-47" value="esta asociado" style="text;html=1;align=center;verticalAlign=middle;resizable=0;points=[];autosize=1;strokeColor=none;fillColor=none;" parent="1" vertex="1">
          <mxGeometry x="550" y="10" width="100" height="30" as="geometry" />
        </mxCell>
        <mxCell id="D1vBDJk1YtNsOjC5OgPf-48" style="edgeStyle=none;rounded=0;orthogonalLoop=1;jettySize=auto;html=1;endArrow=classic;endFill=1;elbow=vertical;" parent="1" source="D1vBDJk1YtNsOjC5OgPf-49" edge="1">
          <mxGeometry relative="1" as="geometry">
            <mxPoint x="689.9999999999998" y="230" as="targetPoint" />
          </mxGeometry>
        </mxCell>
        <mxCell id="D1vBDJk1YtNsOjC5OgPf-49" value="esta asociado" style="text;html=1;align=center;verticalAlign=middle;resizable=0;points=[];autosize=1;strokeColor=none;fillColor=none;" parent="1" vertex="1">
          <mxGeometry x="554" y="217" width="100" height="30" as="geometry" />
        </mxCell>
        <mxCell id="D1vBDJk1YtNsOjC5OgPf-50" style="edgeStyle=none;rounded=0;orthogonalLoop=1;jettySize=auto;html=1;endArrow=classic;endFill=1;elbow=vertical;" parent="1" source="D1vBDJk1YtNsOjC5OgPf-51" edge="1">
          <mxGeometry relative="1" as="geometry">
            <mxPoint x="539.9999999999998" y="255" as="targetPoint" />
          </mxGeometry>
        </mxCell>
        <mxCell id="D1vBDJk1YtNsOjC5OgPf-51" value="puede estar" style="text;html=1;align=center;verticalAlign=middle;resizable=0;points=[];autosize=1;strokeColor=none;fillColor=none;" parent="1" vertex="1">
          <mxGeometry x="564" y="240" width="90" height="30" as="geometry" />
        </mxCell>
        <mxCell id="D1vBDJk1YtNsOjC5OgPf-52" value="1" style="text;html=1;align=center;verticalAlign=middle;resizable=0;points=[];autosize=1;strokeColor=none;fillColor=none;" parent="1" vertex="1">
          <mxGeometry x="685" y="215" width="30" height="30" as="geometry" />
        </mxCell>
        <mxCell id="D1vBDJk1YtNsOjC5OgPf-53" value="0...*" style="text;html=1;align=center;verticalAlign=middle;resizable=0;points=[];autosize=1;strokeColor=none;fillColor=none;" parent="1" vertex="1">
          <mxGeometry x="508" y="237" width="40" height="30" as="geometry" />
        </mxCell>
        <mxCell id="D1vBDJk1YtNsOjC5OgPf-54" value="1" style="text;html=1;align=center;verticalAlign=middle;resizable=0;points=[];autosize=1;strokeColor=none;fillColor=none;" parent="1" vertex="1">
          <mxGeometry x="650" y="330" width="30" height="30" as="geometry" />
        </mxCell>
        <mxCell id="D1vBDJk1YtNsOjC5OgPf-55" value="0...*" style="text;html=1;align=center;verticalAlign=middle;resizable=0;points=[];autosize=1;strokeColor=none;fillColor=none;" parent="1" vertex="1">
          <mxGeometry x="440" y="240" width="40" height="30" as="geometry" />
        </mxCell>
        <mxCell id="D1vBDJk1YtNsOjC5OgPf-56" value="1" style="text;html=1;align=center;verticalAlign=middle;resizable=0;points=[];autosize=1;strokeColor=none;fillColor=none;" parent="1" vertex="1">
          <mxGeometry x="365" y="235" width="30" height="30" as="geometry" />
        </mxCell>
        <mxCell id="D1vBDJk1YtNsOjC5OgPf-57" style="edgeStyle=orthogonalEdgeStyle;rounded=0;orthogonalLoop=1;jettySize=auto;html=1;" parent="1" source="D1vBDJk1YtNsOjC5OgPf-58" edge="1">
          <mxGeometry relative="1" as="geometry">
            <mxPoint x="590" y="315" as="targetPoint" />
          </mxGeometry>
        </mxCell>
        <mxCell id="D1vBDJk1YtNsOjC5OgPf-58" value="es" style="text;html=1;align=center;verticalAlign=middle;resizable=0;points=[];autosize=1;strokeColor=none;fillColor=none;" parent="1" vertex="1">
          <mxGeometry x="514" y="300" width="40" height="30" as="geometry" />
        </mxCell>
        <mxCell id="D1vBDJk1YtNsOjC5OgPf-59" style="edgeStyle=orthogonalEdgeStyle;rounded=0;orthogonalLoop=1;jettySize=auto;html=1;" parent="1" source="D1vBDJk1YtNsOjC5OgPf-60" edge="1">
          <mxGeometry relative="1" as="geometry">
            <mxPoint x="479.9999999999998" y="340" as="targetPoint" />
          </mxGeometry>
        </mxCell>
        <mxCell id="D1vBDJk1YtNsOjC5OgPf-60" value="tiene" style="text;html=1;align=center;verticalAlign=middle;resizable=0;points=[];autosize=1;strokeColor=none;fillColor=none;" parent="1" vertex="1">
          <mxGeometry x="505" y="325" width="50" height="30" as="geometry" />
        </mxCell>
        <mxCell id="D1vBDJk1YtNsOjC5OgPf-61" style="edgeStyle=orthogonalEdgeStyle;rounded=0;orthogonalLoop=1;jettySize=auto;html=1;" parent="1" source="D1vBDJk1YtNsOjC5OgPf-62" edge="1">
          <mxGeometry relative="1" as="geometry">
            <mxPoint x="330.0000000000002" y="300" as="targetPoint" />
          </mxGeometry>
        </mxCell>
        <mxCell id="D1vBDJk1YtNsOjC5OgPf-62" value="pertenece" style="text;html=1;align=center;verticalAlign=middle;resizable=0;points=[];autosize=1;strokeColor=none;fillColor=none;" parent="1" vertex="1">
          <mxGeometry x="230" y="285" width="80" height="30" as="geometry" />
        </mxCell>
        <mxCell id="D1vBDJk1YtNsOjC5OgPf-63" style="edgeStyle=orthogonalEdgeStyle;rounded=0;orthogonalLoop=1;jettySize=auto;html=1;" parent="1" source="D1vBDJk1YtNsOjC5OgPf-64" edge="1">
          <mxGeometry relative="1" as="geometry">
            <mxPoint x="230" y="330" as="targetPoint" />
          </mxGeometry>
        </mxCell>
        <mxCell id="D1vBDJk1YtNsOjC5OgPf-64" value="tiene" style="text;html=1;align=center;verticalAlign=middle;resizable=0;points=[];autosize=1;strokeColor=none;fillColor=none;" parent="1" vertex="1">
          <mxGeometry x="255" y="315" width="50" height="30" as="geometry" />
        </mxCell>
        <mxCell id="D1vBDJk1YtNsOjC5OgPf-65" value="0...*" style="text;html=1;align=center;verticalAlign=middle;resizable=0;points=[];autosize=1;strokeColor=none;fillColor=none;" parent="1" vertex="1">
          <mxGeometry x="160" y="330" width="40" height="30" as="geometry" />
        </mxCell>
        <mxCell id="D1vBDJk1YtNsOjC5OgPf-66" style="edgeStyle=orthogonalEdgeStyle;rounded=0;orthogonalLoop=1;jettySize=auto;html=1;" parent="1" source="D1vBDJk1YtNsOjC5OgPf-67" target="D1vBDJk1YtNsOjC5OgPf-8" edge="1">
          <mxGeometry relative="1" as="geometry">
            <Array as="points">
              <mxPoint x="420" y="310" />
              <mxPoint x="420" y="310" />
            </Array>
          </mxGeometry>
        </mxCell>
        <mxCell id="D1vBDJk1YtNsOjC5OgPf-67" value="Historial Detalle" style="rounded=0;whiteSpace=wrap;html=1;" parent="1" vertex="1">
          <mxGeometry x="345" y="440" width="160" height="40" as="geometry" />
        </mxCell>
        <mxCell id="D1vBDJk1YtNsOjC5OgPf-68" value="enero hasta diciembre" style="text;html=1;align=center;verticalAlign=middle;resizable=0;points=[];autosize=1;strokeColor=none;fillColor=none;" parent="1" vertex="1">
          <mxGeometry x="820" y="245" width="140" height="30" as="geometry" />
        </mxCell>
        <mxCell id="D1vBDJk1YtNsOjC5OgPf-69" value="&lt;font face=&quot;Times New Roman&quot; style=&quot;font-size: 14px;&quot;&gt;Rubro:&amp;nbsp;&lt;b style=&quot;color: rgb(32, 33, 36); text-align: left; background-color: rgb(255, 255, 255);&quot;&gt;Representa cada uno de los ítems o conceptos en que se divide el presupuesto de la Entidad, caracterizado por corresponder a un concepto específico de ingresos o gastos&lt;/b&gt;&lt;span style=&quot;color: rgb(32, 33, 36); text-align: left; background-color: rgb(255, 255, 255);&quot;&gt;.&lt;/span&gt;&lt;/font&gt;" style="rounded=0;whiteSpace=wrap;html=1;" parent="1" vertex="1">
          <mxGeometry x="-170" y="95" width="200" height="105" as="geometry" />
        </mxCell>
        <mxCell id="D1vBDJk1YtNsOjC5OgPf-70" value="&lt;font style=&quot;font-size: 14px;&quot;&gt;&lt;span style=&quot;color: rgb(32, 33, 36); text-align: start; background-color: rgb(255, 255, 255);&quot;&gt;La&amp;nbsp;&lt;/span&gt;&lt;b style=&quot;color: rgb(32, 33, 36); text-align: start; background-color: rgb(255, 255, 255);&quot;&gt;trazabilidad&lt;/b&gt;&lt;span style=&quot;color: rgb(32, 33, 36); text-align: start; background-color: rgb(255, 255, 255);&quot;&gt;&amp;nbsp;es la capacidad para reconstruir el proceso histórico de un producto y de conocer su destino más inmediato por medio de Poseer un plan de&amp;nbsp;&lt;/span&gt;&lt;b style=&quot;color: rgb(32, 33, 36); text-align: start; background-color: rgb(255, 255, 255);&quot;&gt;trazabilidad&lt;/b&gt;&lt;/font&gt;" style="rounded=0;whiteSpace=wrap;html=1;fontFamily=Times New Roman;fontSize=14;" parent="1" vertex="1">
          <mxGeometry x="320" y="520" width="260" height="100" as="geometry" />
        </mxCell>
        <mxCell id="D1vBDJk1YtNsOjC5OgPf-71" value="&lt;font style=&quot;font-size: 14px;&quot;&gt;&lt;span style=&quot;color: rgb(32, 33, 36); text-align: start; background-color: rgb(255, 255, 255);&quot;&gt;Un&amp;nbsp;&lt;/span&gt;&lt;b style=&quot;color: rgb(32, 33, 36); text-align: start; background-color: rgb(255, 255, 255);&quot;&gt;presupuesto&lt;/b&gt;&lt;span style=&quot;color: rgb(32, 33, 36); text-align: start; background-color: rgb(255, 255, 255);&quot;&gt;&amp;nbsp;es un plan que le muestra cómo puede gastar su dinero cada&amp;nbsp;&lt;/span&gt;&lt;b style=&quot;color: rgb(32, 33, 36); text-align: start; background-color: rgb(255, 255, 255);&quot;&gt;mes&lt;/b&gt;&lt;span style=&quot;color: rgb(32, 33, 36); text-align: start; background-color: rgb(255, 255, 255);&quot;&gt;. Hacer un&amp;nbsp;&lt;/span&gt;&lt;b style=&quot;color: rgb(32, 33, 36); text-align: start; background-color: rgb(255, 255, 255);&quot;&gt;presupuesto&lt;/b&gt;&lt;span style=&quot;color: rgb(32, 33, 36); text-align: start; background-color: rgb(255, 255, 255);&quot;&gt;&amp;nbsp;puede servirle para no quedarse sin dinero cada&amp;nbsp;&lt;/span&gt;&lt;b style=&quot;color: rgb(32, 33, 36); text-align: start; background-color: rgb(255, 255, 255);&quot;&gt;mes&lt;/b&gt;&lt;span style=&quot;color: rgb(32, 33, 36); text-align: start; background-color: rgb(255, 255, 255);&quot;&gt;. También puede servirle para ahorrar dinero para sus metas o emergencias.&lt;/span&gt;&lt;/font&gt;" style="rounded=0;whiteSpace=wrap;html=1;fontFamily=Times New Roman;fontSize=14;" parent="1" vertex="1">
          <mxGeometry x="1040" y="170" width="260" height="105" as="geometry" />
        </mxCell>
        <mxCell id="YCPT51A_AC0TnCzbiqEu-1" value="1" style="text;html=1;align=center;verticalAlign=middle;resizable=0;points=[];autosize=1;strokeColor=none;fillColor=none;" vertex="1" parent="1">
          <mxGeometry x="395" y="235" width="30" height="30" as="geometry" />
        </mxCell>
        <mxCell id="YCPT51A_AC0TnCzbiqEu-2" value="0...*" style="text;html=1;align=center;verticalAlign=middle;resizable=0;points=[];autosize=1;strokeColor=none;fillColor=none;" vertex="1" parent="1">
          <mxGeometry x="410" y="415" width="40" height="30" as="geometry" />
        </mxCell>
        <mxCell id="YCPT51A_AC0TnCzbiqEu-5" style="edgeStyle=orthogonalEdgeStyle;rounded=0;orthogonalLoop=1;jettySize=auto;html=1;" edge="1" parent="1" source="YCPT51A_AC0TnCzbiqEu-3">
          <mxGeometry relative="1" as="geometry">
            <mxPoint x="390" y="320" as="targetPoint" />
          </mxGeometry>
        </mxCell>
        <mxCell id="YCPT51A_AC0TnCzbiqEu-3" value="pertenece" style="text;html=1;align=center;verticalAlign=middle;resizable=0;points=[];autosize=1;strokeColor=none;fillColor=none;" vertex="1" parent="1">
          <mxGeometry x="350" y="345" width="80" height="30" as="geometry" />
        </mxCell>
        <mxCell id="YCPT51A_AC0TnCzbiqEu-6" style="edgeStyle=orthogonalEdgeStyle;rounded=0;orthogonalLoop=1;jettySize=auto;html=1;" edge="1" parent="1" source="YCPT51A_AC0TnCzbiqEu-4">
          <mxGeometry relative="1" as="geometry">
            <mxPoint x="440" y="410" as="targetPoint" />
          </mxGeometry>
        </mxCell>
        <mxCell id="YCPT51A_AC0TnCzbiqEu-4" value="tiene" style="text;html=1;align=center;verticalAlign=middle;resizable=0;points=[];autosize=1;strokeColor=none;fillColor=none;" vertex="1" parent="1">
          <mxGeometry x="415" y="350" width="50" height="30" as="geometry" />
        </mxCell>
      </root>
    </mxGraphModel>
  </diagram>
</mxfile>
